<svg version="1.2" xmlns="http://www.w3.org/2000/svg" viewBox="0 0 9 9" width="9" height="9"><style>.a{fill:#072a64}</style><path class="a" d="m4.2 0.5c-2 0-3.7 1.7-3.7 3.7 0 2.1 1.7 3.7 3.7 3.7 2.1 0 3.7-1.6 3.7-3.7 0-2-1.6-3.7-3.7-3.7zm-0.7 0.6q-0.5 0.7-0.8 1.5h-1.2c0.4-0.7 1.2-1.3 2-1.5zm1.4 0c0.9 0.2 1.6 0.8 2.1 1.5h-1.2q-0.3-0.8-0.9-1.5zm-0.7 0.1q0.7 0.6 1 1.4h-2q0.4-0.8 1-1.4zm-3 2h1.3q-0.1 0.5-0.1 1 0 0.6 0.1 1.1h-1.3q-0.1-0.5-0.1-1.1 0-0.5 0.1-1zm1.8 0h2.4q0.2 0.5 0.2 1 0 0.6-0.2 1.1h-2.4q-0.1-0.5-0.1-1.1 0-0.5 0.1-1zm3 0h1.2q0.2 0.5 0.2 1 0 0.6-0.2 1.1h-1.2q0.1-0.5 0.1-1.1 0-0.5-0.1-1zm-4.5 2.6h1.2q0.3 0.9 0.8 1.5c-0.8-0.2-1.6-0.7-2-1.5zm1.7 0h2q-0.3 0.9-1 1.5-0.6-0.6-1-1.5zm2.6 0h1.2c-0.5 0.8-1.2 1.3-2.1 1.5q0.6-0.6 0.9-1.5z"/></svg>