<svg version="1.2" xmlns="http://www.w3.org/2000/svg" viewBox="0 0 50 50" width="50" height="50"><style>.a{fill:#fff}</style><path class="a" d="m5 8c-0.5 0-1.1 0.2-1.4 0.6-0.4 0.4-0.6 0.9-0.6 1.4 0 0.5 0.2 1 0.6 1.4 0.3 0.4 0.9 0.6 1.4 0.6h40c0.5 0 1.1-0.2 1.4-0.6 0.4-0.4 0.6-0.9 0.6-1.4 0-0.5-0.2-1-0.6-1.4-0.3-0.4-0.9-0.6-1.4-0.6zm0 15c-0.5 0-1.1 0.2-1.4 0.6-0.4 0.4-0.6 0.9-0.6 1.4 0 0.5 0.2 1 0.6 1.4 0.3 0.4 0.9 0.6 1.4 0.6h40c0.5 0 1.1-0.2 1.4-0.6 0.4-0.4 0.6-0.9 0.6-1.4 0-0.5-0.2-1-0.6-1.4-0.3-0.4-0.9-0.6-1.4-0.6zm0 15c-0.5 0-1.1 0.2-1.4 0.6-0.4 0.4-0.6 0.9-0.6 1.4 0 0.5 0.2 1 0.6 1.4 0.3 0.4 0.9 0.6 1.4 0.6h40c0.5 0 1.1-0.2 1.4-0.6 0.4-0.4 0.6-0.9 0.6-1.4 0-0.5-0.2-1-0.6-1.4-0.3-0.4-0.9-0.6-1.4-0.6z"/></svg>