<svg id="Layer_1" enable-background="new 0 0 65 65" height="65" viewBox="0 0 65 65" width="65" xmlns="http://www.w3.org/2000/svg"><path d="m23.4 0h5.2v2.6h2.6v2.6h-7.8v2.6h2.6v2.6h2.6v-2.6h2.6v5.2h-7.8v5.2h-2.6v-15.6h2.6z"/><path d="m31.2 0h2.6v2.6h-2.6z"/><path d="m39 0h2.6v5.2h-2.6z"/><path d="m0 0v18.2h18.2v-18.2zm15.6 15.6h-13v-13h13z"/><path d="m33.8 2.6h2.6v2.6h-2.6z"/><path d="m46.8 0v18.2h18.2v-18.2zm15.6 15.6h-13v-13h13z"/><path d="m5.2 5.2h7.8v7.8h-7.8z"/><path d="m31.2 5.2h2.6v2.6h-2.6z"/><path d="m41.6 5.2h2.601v2.6h-2.601z"/><path d="m52 5.2h7.8v7.8h-7.8z"/><path d="m36.399 7.8h2.601v2.6h2.6v5.2h-2.6v5.2h-2.601z"/><path d="m31.2 13h2.6v7.8h-2.6z"/><path d="m26 15.6h2.6v7.8h-7.8v2.6h-2.6v-2.6h-2.6v2.6h2.6v2.6h-2.6v2.6h5.2v-2.6h2.6v5.2h-10.4v-2.6h-2.6v-5.2h2.6v-5.2h10.4v-2.6h2.6z"/><path d="m41.6 15.6h2.6v5.2h2.6v2.6h2.6v-2.6h13v2.6h-2.6v5.2h-2.6v-2.6h-2.6v-2.6h-2.6v2.6h-2.6v2.6h-2.6v-2.6h-2.6v-2.6h-2.6z"/><path d="m5.2 20.8h2.6v2.6h2.6v2.6h-5.2z"/><path d="m33.8 20.8h2.599v5.2h2.601v5.2h2.6v-2.6h5.2v2.6h-2.6v2.6h-5.2v2.599h2.6v2.601h-2.6v2.6h-2.601v-5.201h-10.399v-2.599h2.6v-2.6h2.6v2.6h5.199v-2.6h-5.199v-5.2h2.6z"/><path d="m0 23.4h2.6v2.6h2.6v5.2h-2.6v2.6h-2.6z"/><path d="m28.6 23.4h2.601v2.6h-2.601z"/><path d="m62.4 23.4h2.6v5.2h-2.6z"/><path d="m23.4 26h2.6v2.6h-2.6z"/><path d="m52 26h2.6v2.6h2.6v5.2h5.2v-2.6h2.6v7.8h-2.6v-2.601h-2.6v2.601h-2.6v-2.601h-2.6v-5.199h-2.6z"/><path d="m59.8 28.6h2.601v2.6h-2.601z"/><path d="m5.2 31.2h2.6v5.199h-2.6z"/><path d="m46.8 31.2h2.6v2.6h2.6v2.599h2.6v2.601h-5.2v-2.601h-2.6z"/><path d="m10.4 33.8h2.6v2.599h5.2v2.601h-2.6v2.6h2.6v2.6h-7.8v-2.6h2.6v-2.6h-2.6z"/><path d="m0 36.399h5.2v2.601h-5.2z"/><path d="m23.4 36.399h2.6v2.601h-2.6z"/><path d="m7.8 39h2.6v2.6h-2.6z"/><path d="m20.8 39h2.601v2.6h-2.601z"/><path d="m26 39h7.8v5.2h-2.6v-2.6h-5.2z"/><path d="m54.6 39h2.601v2.6h-2.601z"/><path d="m59.8 39h2.6v5.2h2.6v7.8h-2.6v-5.2h-2.6v2.6h-2.6v-5.2h2.6z"/><path d="m0 41.6h5.2v2.601h-5.2z"/><path d="m20.8 44.2h10.4v2.6h-7.8v5.2h-2.6z"/><path d="m54.6 57.2v-2.6h2.6v-2.6h-2.6v-10.4h-7.8v-2.6h-2.6v2.6h-2.6v2.6h-2.6v2.6h2.6v2.6h-2.6v-2.6h-2.601v5.2h2.601v2.6h5.2v2.6h-5.2v2.6h5.2v2.6h2.6v2.6h5.2v-2.6h-2.6v-2.6h-2.6v-5.2h5.2v2.6h-2.6v2.6h5.2v5.2h2.6v-2.6h2.6v-2.6h5.2v-2.6zm-2.6-5.2h-7.8v-7.8h7.8z"/><path d="m46.8 46.8h2.601v2.601h-2.601z"/><path d="m0 46.8v18.2h18.2v-18.2zm15.6 15.6h-13v-13h13z"/><path d="m26 49.4h2.6v2.6h7.799v2.6h-2.599v7.8h-2.6v2.6h-7.8v-2.6h5.2v-5.2h2.6v-2.6h-2.6v2.6h-5.2v-5.2h2.6z"/><path d="m5.2 52h7.8v7.8h-7.8z"/><path d="m20.8 57.2h2.601v2.6h-2.601z"/><path d="m33.8 62.4h2.6v2.6h-2.6z"/><path d="m41.6 62.4h2.601v2.6h-2.601z"/><path d="m62.4 62.4h2.6v2.6h-2.6z"/></svg>