<svg version="1.2" xmlns="http://www.w3.org/2000/svg" viewBox="0 0 504 570" width="504" height="570">
	<title>emblem</title>
	<style>
		.s0 { fill: #000000 } 
		.s1 { fill: #ffffff;stroke: #000000;stroke-linejoin: round;stroke-width: 4.3 } 
		.s2 { fill: #feb402;stroke: #000000;stroke-linejoin: round;stroke-width: 4.3 } 
		.s3 { fill: #feb402;stroke: #000000;stroke-linejoin: round;stroke-width: 4 } 
		.s4 { fill: #0182d6 } 
		.s5 { fill: #ffffff } 
		.s6 { fill: #ffffff;stroke: #000000 } 
		.s7 { fill: #007a3d } 
		.s8 { fill: #ce1126 } 
		.s9 { fill: none;stroke: #000000 } 
		.s10 { fill: #0182d6;stroke: #000000;stroke-width: .4 } 
		.s11 { fill: #ffffff;stroke: #000000;stroke-width: .4 } 
		.s12 { fill: none;stroke: #000000;stroke-linejoin: round;stroke-width: 4 } 
		.s13 { fill: #feb402;stroke: #000000;stroke-width: 4 } 
		.s14 { fill: #ce1126;stroke: #000000;stroke-width: .4 } 
		.s15 { fill: #007a3d;stroke: #000000;stroke-width: .4 } 
		.s16 { fill: #ffffff;stroke: #000000;stroke-width: 3 } 
		.s17 { fill: none;stroke: #000000;stroke-width: 4 } 
	</style>
	<g id="layer1" style="opacity: .31;mix-blend-mode: hue">
		<g id="layer2">
		</g>
		<g id="g2445">
		</g>
		<path id="path5218" class="s0" d="m-894.5 35.5c0 0.8-0.7 1.5-1.5 1.5-0.8 0-1.5-0.7-1.5-1.5 0-0.8 0.7-1.5 1.5-1.5 0.8 0 1.5 0.7 1.5 1.5z"/>
		<g id="g5347">
			<path id="path5327" class="s1" d="m431.1 71.8c9.4-3.7 16.6-5.8 24 6.3 23.4 38.6 34.1 83.7 30.1 128.1l-28.7-12.1"/>
			<path id="path5329" class="s2" d="m368.3 30.9c7.6-6.7 13.7-11 24.7-2.2 63.3 51 94.8 135.5 70.2 218l-21-23.6"/>
			<path id="path5331" class="s1" d="m302.2 15.9c5.4-8.5 10-14.5 23.1-9.2 75.1 30.9 129.4 102.9 129.4 189q0 14.2-1.9 27.9l-20.9-7.7"/>
			<path id="path5333" class="s3" d="m252 24.7c0-14.3 14.3-16.1 25.8-14.4 92 13.2 163.2 91.8 163.2 187.4q0 13.3-1.8 26l-23 3.7"/>
			<path id="path5325" class="s1" d="m72.9 71.8c-9.4-3.7-16.6-5.8-24 6.3-23.4 38.6-34.1 83.7-30.1 128.1l28.7-12.1"/>
			<path id="path5323" class="s2" d="m135.7 30.9c-7.6-6.7-13.7-11-24.7-2.2-63.3 51-94.8 135.5-70.2 218l21-23.6"/>
			<path id="path5321" class="s1" d="m201.8 15.9c-5.4-8.5-10-14.5-23.1-9.2-75.1 30.9-129.4 102.9-129.4 189q0 14.2 1.9 27.9l20.9-7.7"/>
			<path id="path5312" class="s3" d="m252 24.7c0-14.3-14.3-16.1-25.8-14.4-92 13.2-163.2 91.8-163.2 187.4q0 13.3 1.8 26l23 3.7"/>
			<path id="path5297" class="s4" d="m253.1 24.1c-94.3 0-171 75.4-173.4 169.1 0.2-1.3 0.2-2.6 0.5-4 0.5-2.2 1.3-4.5 2.3-6.6 1-2.2 2.3-4.3 3.8-6.3 1.4-2 3.1-3.8 4.9-5.4 1.9-1.6 3.9-3.1 6.1-4.2q1.6-0.9 3.4-1.5c1.2-0.4 2.4-0.8 3.6-1q1.9-0.4 3.9-0.5 2-0.1 4 0.1 2.1 0.2 4.2 0.8 2.2 0.5 4.4 1.4-0.2-3.1 0-6 0.2-3 0.7-5.7 0.5-2.8 1.3-5.4 0.8-2.6 1.9-5 1.1-2.4 2.5-4.6 1.3-2.1 3-4 1.6-1.9 3.4-3.5 1.8-1.5 3.9-2.8c1.3-0.9 2.8-1.6 4.3-2.2q2.2-1 4.5-1.5c1.6-0.4 3.3-0.7 4.9-0.8q2.5-0.1 5.1 0.1 2.6 0.3 5.4 1 2.7 0.7 5.4 1.9 2.8 1.1 5.6 2.8 2.9 1.7 5.7 3.9 1.4-2 2.8-3.3c0.9-0.9 1.9-1.6 2.9-2.2q1.5-0.8 2.9-1.1 1.5-0.4 3-0.2 1.5 0.1 3 0.6 1.5 0.5 2.9 1.4 1.5 0.9 2.9 2.1 1.4 1.2 2.8 2.7c-0.5-3.3-0.8-6.4-0.8-9.2q0-4.2 0.8-7.6 0.8-3.3 2.2-5.9 0.7-1.2 1.5-2.2 0.9-1.1 1.9-1.9 1-0.8 2.1-1.4 1.1-0.5 2.3-0.9c0.8-0.2 1.6-0.3 2.5-0.4q1.3-0.1 2.7 0.1 2.7 0.3 5.7 1.6c2 0.9 4.1 2.2 6.2 3.8 1.8-2.6 3.9-5.2 6.3-7.7 2.4-2.5 5-4.9 7.9-7.1q2.1-1.5 4.4-2.9c1.5-0.9 3.1-1.7 4.6-2.4q2.4-1.1 4.9-1.8 2.4-0.6 5-0.9c1.6-0.2 3.3-0.2 5 0q2.6 0.2 5.1 1 2.6 0.8 5.1 2.3 2.5 1.4 5 3.5 2.4 2.1 4.8 5 2.4 2.9 4.7 6.6 2.3 3.7 4.5 8.2 2.1 4.6 4.1 10.1 4-0.4 7.4-0.3 3.4 0.1 6.2 0.7 2.8 0.6 5.1 1.7 2.4 1.1 4.2 2.6 1.9 1.6 3.5 3.6 1.5 2 2.7 4.5 1.3 2.5 2.3 5.5 1 3 1.8 6.4c2.1-1.4 4-2.4 5.9-3.1q2.9-1.1 5.5-1.2c1.8-0.2 3.5 0 5.1 0.3 1.6 0.4 3.2 1 4.6 1.7q2.2 1.1 4.1 2.5 1.9 1.5 3.5 3.2c1 1.1 2 2.3 2.8 3.5q1.3 1.8 2.1 3.4 4.1-3.2 8.4-5.4c2.9-1.4 5.8-2.5 8.7-3.3q2.2-0.6 4.3-0.9 2.2-0.3 4.3-0.3 2.2-0.1 4.2 0.1 2.1 0.2 4.2 0.7 2 0.5 3.9 1.3 1.9 0.7 3.8 1.7 1.8 1.1 3.5 2.3 1.7 1.3 3.3 2.9 1.6 1.6 3 3.4 1.4 1.9 2.7 4 1.2 2.1 2.3 4.5c0.5 1.2 0.9 2.4 1.3 3.6-11.7-84.4-84.1-149.6-171.7-149.6z"/>
			<path id="path5175" fill-rule="evenodd" class="s5" d="m424.5 175.2c1 7.4 1.3 14.9 1.3 22.5 0 95.8-77.7 173.6-173.5 173.6-95.9 0-173.6-77.8-173.6-173.6 0-95.8-0.1 15.3-0.1-1.9 0-17.1 17.6-39.4 41.4-29.8-2-32.8 27.3-55.3 57.6-31.8 7.3-10.4 15.9-7.8 23.2 0-4.5-26.5 10.4-36.9 27-24 14.4-20.5 50.1-45 71.5 13.9 21.4-2.1 28.6 6.5 33.2 24.7 16.1-11.1 29 1.4 33.6 10.3 21.8-17.1 49.5-12.5 58.4 16.1z"/>
			<g id="g5165">
				<path id="path5163" fill-rule="evenodd" class="s6" d="m348.6 197.2c6.5-0.9 15.3 9.1 18.1 10 2.9 0.8 8.9 1 8.9 1l-11.2 13.7c0 0-1 0.6-3.6 0.3-2.7-0.2-8.3-3.4-12.8-7.6-4.6-4.2-12.1-4.5-12.1-4.5z"/>
				<path id="path5151" fill-rule="evenodd" class="s7" d="m349.2 197.1q-0.3 0-0.6 0l-1.1 1.2 1.7 5.6c6.2-0.6 12.4 8.9 15.4 8.9 1.3 0 4.2 0.1 7.1 0.2l3.9-4.8c0 0-6-0.2-8.9-1.1-2.7-0.8-11-10.1-17.5-10z"/>
				<path id="path5156" fill-rule="evenodd" class="s8" d="m341.6 205.6l-3.4 2.2-2.3 2.3c0 0 7.5 0.3 12.1 4.5 4.5 4.1 10.1 7.4 12.7 7.6 2.7 0.3 3.7-0.3 3.7-0.3l4.6-5.6c-3 0.3-6 0.5-7.9 0.1-4.5-1-9.5-7.1-14-8z"/>
				<path id="path5149" fill-rule="evenodd" class="s9" d="m348.6 197.2c6.5-0.9 15.3 9.1 18.1 10 2.9 0.8 8.9 1 8.9 1l-11.2 13.7c0 0-1 0.6-3.6 0.3-2.7-0.2-8.3-3.4-12.8-7.6-4.6-4.2-12.1-4.5-12.1-4.5z"/>
			</g>
			<path id="path5143" class="s0" d="m264.5 128.4c15.3-7.4 30.6-15 45.9-22.5 5.7 0.8 0.7 3-1.8 4.8-14.7 10.2-28.7 22.1-38.6 37.2-6.2 12.2-11.9 24.8-16 37.9 6.3-3 11.9-7.3 17.9-10.9 6.4-11.7 12.3-23.8 19.4-35.2 3.2 2.3 2 7 3.1 10.4-0.1 7.1 1.9 11.4 8.1 5.1 14.5-9.2 28.9-18.6 43.4-27.8 3.4 4.1-4.8 6.7-5.9 10.4-3.8 4.1-7 8.7-9.1 13.9-7.8 6-10.4 16.2-14.7 24.6-1.9 8.2-5.2 16.2-4.6 24.7-0.3 8-0.7 16 0.9 23.9 3.5-0.2 7.6 0.9 10.7-0.1 8.8-10.5 16-17.8 25.3-27.8 0.2 1.7 0.3 0 1.6 0.4-3.1 0.1 3.2 7.2 2.1 9.1-2.4 3.8-4.4 1.3-11 2.9-4.1 1.5-4.5 1-7.4 4.6q-4.4 5.5-8.8 10.9 16.6 0.4 33.2 0.8c-8.3 9.3-23.2 36.8-27.4 48.7-42.5 7-88.4-0.1-135.4 1-3.9-7.9-16.7-21.2-22.4-27.8q-7.7-7.1-15.3-14.3c-8.9 1-17.7 1.9-26.6 2.2-4-11.9-1.4-24.8 3.1-36.1 3.3-2.7 3-4.9-0.8-6.7 22.2-11.6 45-22.1 67.5-33.3 6-18.6 11.9-37.3 18-55.8 1.5-2.2 2.1 5 3.7 6.4 3.9 10.9 7.9 21.9 12.6 32.5 9.8-4.6 19.5-9.4 29.3-14.1zm-17.4 103.2c6.5 2.8 1.5-11.7 0.4-7.6-0.7 2.6-4.6 5.1-3 7.6q1.3 0 2.6 0zm12.4 0c2.3-0.6 8.6 1.7 7.4-2.2-1.7-2.7-1.2-8.5-5.6-7.3-5.2 0.2-15-1.3-9.6 6.7-0.2 4.9 4.9 2.1 7.8 2.8zm12.7-0.1c4.8 1.5 2-4.9 3.9-6.2 3.8 1.9 7.7-3.3 2.7-3.2-5.2 0.5-16.5-2.5-11 5.7 1.1 2.7 0.7 4.8 4.4 3.7zm-138.9-2.1c3.6-5 13.4-3.3 15.1-8.7 1.3-5.2 5.7-0.2 8.7 0.4 1.6 0.1 9.5-0.2 6.5-2.1-8.6-7.2-16.6-15.4-26-21.6-2.2 1.5-2.8 6.1-4.5 8.7-2.1 8-3.8 16.6-1.5 24.8q0.9-0.7 1.7-1.5zm9.3 1.3c3.6-0.4 15.8 0.6 7.9-4.1-3.2 0.6-12.7 3-11.2 4.2q1.6 0 3.3-0.1zm69.8 0q6.1 0.1 12.1 0.1c1.2-4.5-4.7-1.4-7.3-2-3.9 0.3-16 1.3-15.8 1.8q5.5 0.1 11 0.1zm24.4 0.1c4.6 1.3 6.8-1.3 8-5.5-0.8-3.5-11-0.5-13.7 2.1-1.5 4.3 2.9 3.5 5.7 3.4zm-66.1-2.2c5.5 1.1 0.2-4.6-2.3-4.1-4.2-0.3-7.1-0.2-2.3 3 1.3 1.9 2.7 1.4 4.6 1.1zm7.4-0.9c4.4-2.7 0.4-5.3-3.6-4-3.3-1.2 3.3 5 3.6 4zm11.6-0.5c6.2 1 14.8-3.3 4.5-2.9q-6-0.3-12.1-0.7c-4.4 5.7 2.6 3.9 6 3.7q0.8 0 1.6-0.1zm13.3-1.3c9-0.4-8.8-0.3 0 0zm29.4-1.1c4.2-4.1 15.2 0.8 15.1-6.3-1.9-7-2.9-14.4-5.9-21q-6.2 4-12.5 8.1c0.6 6.6 1 13.2 2 19.8q0.6-0.3 1.3-0.6zm67.1 0.5c8.4 0.6 1.5-1.7-3.3-1.9-5.2 0.4 0.8 2.9 3.3 1.9zm-75.8-0.8c3.3-3.1-3-4.2-0.2 0zm86.6-0.1c0.1-9.5-1.5-18.9 0.2-28.3 0.7-12 5.6-23.1 10.3-34-1.8-3.4-3.8-6.6-8-6.8-5.7-1.8-9.7 3.7-14.5 5.8-5.2 3.7 1.7 13 0.7 18.6 2.3 14.6 4.2 29.3 6.8 43.9 1.5 0.2 3 0.4 4.5 0.8zm-94-1.6c4.7 0.8 3.9-7 7.5-9.4-0.9-20.1-1.7-40.3-2.9-60.4-3.6 1.9-10.2 2-9.4 7.6-3.1 20.1-6.9 40.2-9.3 60.5 4.7 0.6 9.4 1.3 14.1 1.7zm86-0.1c3.6-5.2-2.1-17.8-2.1-25.8-1.6-11-3.6-21.9-4.9-32.9-4.5-1.2-1.8 4.7-2.4 7.4 0.5 16.8 0.3 33.8 1.8 50.6 2.5 0.3 5.1 0.5 7.6 0.7zm-48.8-1.5c4.8-0.2 12.6 0.4 7.9-5.9-1.7-5.5-4.7-13.1-7.6-3.4-0.3 2.7-6.7 8-2.7 9.2l1.1 0.1zm26.1-0.1c5-3.3 2.3-15.1 4.5-21.3q1.7-15.2 3.5-30.4c-2.4-1.7-5.4 3-8.1 3.8-3.5 2.5-8.1 4.1-9.5 8.7-3.8 7.3-8.1 14.4-11.2 22 1.6 5.5 3.9 10.8 6 16.2 4.9 0.3 9.9 0.6 14.8 1zm-104.4-1.1c10.9 1 8.8-14.1 13-21.2 3.5-11.7 8-23.2 10.5-35.1-2.6 0.4-6.2 2.9-9.2 4.2q-25.3 12.2-50.5 24.5c-0.6 3.2 4.4 4.6 6.1 7q12 10.5 24.1 21.1 3-0.3 6-0.5zm16.7 0.5c2.6-0.8 8.4 1.7 8.8-1.5 3-20.5 6.9-40.9 9.5-61.4-7.1 2.2-11.1 7.2-12 14.8-5 16-10.6 31.9-15.1 48.1q4.4 0 8.8 0zm57-3.2c2.4-4.7 6-9.5 7.5-14.4-1.9-3.2-2.1-11.6-5.6-11.4-9.6 3.1-6.4 11.7-3.7 19.5 0.6 2.1 1 4.2 1.8 6.3zm-20-15.1c8.1-3.7 15.6-8.5 9.9-18.1-2.9-12-5.9-24-8.9-36-3.1 1.6-7.4 2.6-5.5 6.9 1.6 15.7 2.8 31.5 4.5 47.2zm29.5-2.8c3-5.5 8.7-13.7 9-18.1-4.9 2.6-9.5 5.8-14.2 8.8 1.8 2.5 2.7 11.7 5.2 9.3zm-11.6-8.4c7.6-2 0.8-9.1-0.2-13.9-3.8-10.1-7.8-20.2-11.6-30.2-4.4-1.4-3.4 3.8-2.4 6.4 3.4 13.3 6.5 26.8 10.2 40.1q2-1.2 4-2.4zm6.1-7.6c5.1-11.8 8.4-24.4 15.6-35.3 0.2-2.3-3.7-6.6-6.4-6.7-4.2-1-6.6 3.2-9.7 5.1 0.3-3 0.2-7.3-3.3-7.7q-6.3 3-12.7 6c4.1 13.8 9.9 27.3 15.3 40.7 0.3 0.8 0.9-1.9 1.2-2.1zm61.9-76.7c-1.4-1.1 1.5-1.1 0 0zm-38.9 65.2c4.3-2.1 8.2-5 12.3-7.5 0.4-6.3 1.4-12.5 2.1-18.7-5 5.6-7.8 13.7-11.8 20.4-0.4 1.5-3.7 5.3-2.6 5.8zm17.5-11.1c3 0.1-1.2-11.2-1.1-10.2q-0.1 5.1-0.1 10.2 0.6 0 1.2 0zm-86.5-4.3c6.3-1.2 4.7-8.4 6-13.2 1.1-8.2 4.6-23.8 3.7-27.3-5 14-9.5 28.3-13.8 42.5q2-1 4.1-2zm9.7-4.9c4.3-0.8 4.7-4 3.9-7.8-0.4-9.3-0.8-18.6-0.8-27.9-2.8 3.2-1.8 8.2-3 12.2-1.4 8.5-2.5 17.2-4.3 25.7q2.1-1.1 4.2-2.2zm7.5-3.6c6.2-0.4 4.8-4.8 3.4-8.9-2.3-8.3-3.7-17-7-24.8 1.7 11.1 1.8 22.8 3.6 33.7zm6.5-3.1c6.2-4.1-4.7-18-5.3-21.9 1.4 7.3 3.3 14.6 5.3 21.9z"/>
			<path id="path4032" fill-rule="evenodd" class="s10" d="m94.5 269.2c1.4 2.9 2.7 5.9 4.2 8.8 0.8 1.4 1.6 2.7 2.4 4 5-2.4 9.7-5.4 14.1-8.3 8.9-5.8 16.8-10.7 25.2-10.7 8.4 0 16.3 4.9 25.2 10.7 8.9 5.8 18.7 12.4 30.7 12.4 12 0 21.9-6.6 30.8-12.4 8.8-5.8 16.8-10.7 25.2-10.7 8.3 0 16.3 4.9 25.2 10.7 8.8 5.8 18.7 12.4 30.7 12.4 12 0 21.8-6.6 30.7-12.4 8.9-5.8 16.8-10.7 25.2-10.7 8.4 0 16.3 4.9 25.2 10.7 4.4 2.8 9 5.9 14 8.3 0.8-1.6 1.8-3.1 2.7-4.7 1.4-2.6 2.6-5.4 3.8-8.2-4.8-2-9.7-5-15-8.4-8.8-5.7-18.7-12.4-30.7-12.4-12 0-21.8 6.7-30.7 12.4-8.9 5.8-16.9 10.7-25.2 10.7-8.4 0-16.3-4.9-25.2-10.7-8.9-5.7-18.7-12.4-30.7-12.4-12 0-21.9 6.7-30.8 12.4-8.9 5.8-16.8 10.7-25.2 10.7-8.4 0-16.3-4.9-25.2-10.7-8.9-5.7-18.7-12.4-30.7-12.4-12 0-21.8 6.7-30.7 12.4-5.3 3.5-10.3 6.5-15.2 8.5z"/>
			<path id="path4041" fill-rule="evenodd" class="s11" d="m100.2 280.5c1.9 3.4 3.8 6.8 5.9 10 0.5 0.7 1 1.3 1.4 2q4-2.4 7.7-4.8c8.9-5.8 16.8-10.7 25.2-10.7 8.4 0 16.3 4.9 25.2 10.7 8.9 5.8 18.7 12.4 30.7 12.4 12 0 21.9-6.6 30.8-12.4 8.8-5.8 16.8-10.7 25.2-10.7 8.3 0 16.3 4.9 25.2 10.7 8.8 5.8 18.7 12.4 30.7 12.4 12 0 21.8-6.6 30.7-12.4 8.9-5.8 16.8-10.7 25.2-10.7 8.4 0 16.3 4.9 25.2 10.7q3.7 2.4 7.6 4.7c0.6-0.9 1.3-1.8 1.9-2.8 1.9-3 3.7-6.1 5.4-9.2-3.1-1.7-6.1-3.6-9.4-5.7-8.8-5.8-18.7-12.4-30.7-12.4-12 0-21.8 6.6-30.7 12.4-8.9 5.8-16.9 10.7-25.2 10.7-8.4 0-16.3-4.9-25.2-10.7-8.9-5.8-18.7-12.4-30.7-12.4-12 0-21.9 6.6-30.8 12.4-8.9 5.8-16.8 10.7-25.2 10.7-8.4 0-16.3-4.9-25.2-10.7-8.9-5.8-18.7-12.4-30.7-12.4-12 0-21.8 6.6-30.7 12.4-3.3 2.1-6.4 4.1-9.5 5.8z"/>
			<path id="path4050" fill-rule="evenodd" class="s10" d="m106.3 290.8q3.8 5.9 7.9 11.4 0.5-0.2 1-0.5c8.9-5.8 16.8-10.7 25.2-10.7 8.4 0 16.3 4.9 25.2 10.7 8.9 5.8 18.7 12.4 30.7 12.4 12 0 21.9-6.6 30.8-12.4 8.8-5.8 16.8-10.7 25.2-10.7 8.3 0 16.3 4.9 25.2 10.7 8.8 5.8 18.7 12.4 30.7 12.4 12 0 21.8-6.6 30.7-12.4 8.9-5.8 16.8-10.7 25.2-10.7 8.4 0 16.3 4.9 25.2 10.7q0.4 0.2 0.8 0.5 0.4-0.5 0.8-1c2.5-3.4 4.9-6.9 7.2-10.5-1.1-0.6-2.2-1.3-3.3-2-8.8-5.8-18.7-12.4-30.7-12.4-12 0-21.8 6.6-30.7 12.4-8.9 5.8-16.9 10.7-25.2 10.7-8.4 0-16.3-4.9-25.2-10.7-8.9-5.8-18.7-12.4-30.7-12.4-12 0-21.9 6.6-30.8 12.4-8.9 5.8-16.8 10.7-25.2 10.7-8.4 0-16.3-4.9-25.2-10.7-8.9-5.8-18.7-12.4-30.7-12.4-12 0-21.8 6.6-30.7 12.4-1.2 0.7-2.3 1.4-3.4 2.1z"/>
			<path id="path4072" fill-rule="evenodd" class="s11" d="m113.1 300.5c0.4 0.7 0.9 1.4 1.3 2 2.4 3.1 4.8 6.1 7.3 9 6.4-3.8 12.4-6.6 18.7-6.6 8.4 0 16.3 5 25.2 10.7 8.9 5.8 18.7 12.5 30.7 12.5 4.4 0 8.5-1.1 12.4-2.6 0.3-1 0.7-2 1.2-2.8q0.8-1.6 1.9-2.8 1.1-1.3 2.4-2.2c1.7-1.3 3.5-2.2 5.4-2.9 1.9-0.7 3.9-1.1 5.6-1.4q1.1-3.9 2.7-7 1.5-3 3.4-5.2c1.3-1.6 2.6-2.8 4-3.9q2.1-1.6 4.2-2.7c1.4-0.7 2.8-1.2 4.1-1.6 1.3-0.5 2.5-0.7 3.6-0.9 2.3-0.5 4-0.5 4.8-0.5q3.4 0 6.5 0.7 3.1 0.8 5.8 2.2 2.7 1.4 4.9 3.4 2.3 1.9 4 4.3c1.1 1.6 2.1 3.4 2.9 5.2q1.1 2.7 1.6 5.7c0.2 0.9 0.2 1.9 0.2 2.8 8.8 5.7 18.5 12.2 30.3 12.2 12 0 21.8-6.7 30.7-12.5 8.9-5.7 16.8-10.7 25.2-10.7 6.2 0 12.3 2.8 18.6 6.6q4.2-5 8.2-10.3 0.2-0.4 0.5-0.7c-8-5.2-16.8-10.2-27.3-10.2-12 0-21.8 6.6-30.7 12.4-8.9 5.8-16.9 10.7-25.2 10.7-8.4 0-16.3-4.9-25.2-10.7-8.9-5.8-18.7-12.4-30.7-12.4-12 0-21.9 6.6-30.8 12.4-8.9 5.8-16.8 10.7-25.2 10.7-8.4 0-16.3-4.9-25.2-10.7-8.9-5.8-18.7-12.4-30.7-12.4-10.5 0-19.3 5.1-27.3 10.2z"/>
			<path id="path4063" fill-rule="evenodd" class="s10" d="m277.7 313.3c0.4 1.9 0.5 3.9 0.4 5.9q-0.2 3.1-1 6.3c-0.4 1.2-0.5 2.3-0.8 3.4 0.4 0.3 0.8 0.5 1.2 0.7 8.8 5.8 18.7 12.4 30.7 12.4 12 0 21.8-6.6 30.7-12.4 8.9-5.8 16.8-10.7 25.2-10.7 3.3 0 6.5 0.9 9.8 2.2 2.8-2.9 5.7-5.9 8.4-9.1 0.5-0.6 1-1.3 1.6-2-6-3.2-12.5-5.8-19.8-5.8-12 0-21.8 6.7-30.7 12.5-8.9 5.7-16.9 10.7-25.2 10.7-8.4 0-16.3-5-25.2-10.7-1.7-1.1-3.5-2.3-5.3-3.4z"/>
			<path id="path4059" fill-rule="evenodd" class="s10" d="m120.5 310.1c1 1.2 2 2.4 3 3.6 2.2 2.6 4.5 5.1 6.9 7.5 3.3-1.3 6.6-2.3 10-2.3 8.4 0 16.3 4.9 25.2 10.7 8.9 5.8 18.7 12.4 30.7 12.4 12 0 21.9-6.6 30.8-12.4-0.3-1.2-0.7-2.4-1.2-3.6-0.9-3.2-9.9-1.5-17.4 0.2 0.2-0.9 0.6-1.6 0.9-2.4-4.4 2.2-8.7 3.6-13.1 3.6-8.4 0-16.3-5-25.2-10.7-8.9-5.8-18.7-12.5-30.7-12.5-7.4 0-13.9 2.6-19.9 5.9z"/>
			<path id="path4091" fill-rule="evenodd" class="s11" d="m276.8 326.7c-0.6 2.3-1.1 4.6-1.4 6.8q-0.4 3.8-0.2 7.3c0 0.5 0.2 1 0.3 1.5 0.6 0.5 1.3 0.8 2 1.3 8.8 5.8 18.7 12.4 30.7 12.4 12 0 21.8-6.6 30.7-12.4 7.7-5.1 14.8-9.2 22-10.3 0.9-0.7 1.7-1.4 2.6-2.1q4.9-4.3 9.6-9.1c0.6-0.7 1.1-1.3 1.7-2-3.4-1.1-6.9-1.9-10.7-1.9-12 0-21.8 6.7-30.7 12.4-8.9 5.8-16.9 10.7-25.2 10.7-8.4 0-16.3-4.9-25.2-10.7-2-1.3-4.1-2.6-6.2-3.9z"/>
			<path id="path4087" fill-rule="evenodd" class="s11" d="m129.4 320.2c1.2 1.3 2.4 2.7 3.7 3.9 3.1 3.2 6.3 6.2 9.5 9.1 7.6 0.8 14.9 5.1 23 10.4 8.9 5.8 18.7 12.4 30.7 12.4 12 0 21.9-6.6 30.8-12.4 1-0.7 1.9-1.2 2.9-1.9-0.2-2.1-0.5-4.2-1.1-6.4-0.6-2.5-1.5-5.1-2.5-7.8-1.6 1-3.3 2.1-4.9 3.1-8.9 5.8-16.8 10.7-25.2 10.7-8.4 0-16.3-4.9-25.2-10.7-8.9-5.7-18.7-12.4-30.7-12.4-3.9 0-7.5 0.9-11 2z"/>
			<path id="path4104" fill-rule="evenodd" class="s10" d="m275.2 339.8c0 0.3 0 0.7 0 1q0.2 3.4 1.1 6.4 0.9 3.1 2.4 5.6 1.4 2.6 3.5 4.6 2 2 4.5 3.4 2.5 1.4 5.5 2.1 3 0.7 6.4 0.7c2.5 0 5.2-0.2 7.9-0.7q4.2-0.8 8.7-2.2c2.9-0.9 6-2.1 9.2-3.5q4.7-2.1 9.6-4.8 4.8-2.7 9.8-6 4.9-3.2 9.9-7.1c2.8-2.2 5.6-4.5 8.4-7-11.1 0.7-20.3 6.9-28.7 12.3-8.9 5.8-16.9 10.7-25.2 10.7-8.4 0-16.3-4.9-25.2-10.7-2.5-1.6-5.1-3.2-7.8-4.8z"/>
			<path id="path4100" fill-rule="evenodd" class="s10" d="m141.7 332.3c0.4 0.4 0.9 0.9 1.3 1.3 3.4 3 6.8 5.9 10.2 8.6 3.4 2.6 6.9 5.1 10.3 7.4 3.4 2.3 6.8 4.4 10.1 6.3q5 2.9 9.9 5.1 4.8 2.2 9.4 3.7c3 1 6 1.8 8.8 2.3 2.3 0.4 4.5 0.5 6.6 0.6 6.9-2.4 13.1-6.3 18.8-10 0.4-0.3 0.8-0.5 1.2-0.8q0.1-0.1 0.1-0.2 1.2-2.7 1.7-6 0.4-3.3 0.2-7.1c-0.1-1.2-0.5-2.6-0.7-3.9-2.8 1.6-5.5 3.3-8.1 5-8.9 5.8-16.8 10.7-25.2 10.7-8.4 0-16.3-4.9-25.2-10.7-8.5-5.6-18-11.8-29.4-12.3z"/>
			<path id="path5173" class="s12" d="m425.8 197.7c0 95.9-77.7 173.6-173.5 173.6-95.9 0-173.6-77.7-173.6-173.6 0-95.8 77.7-173.6 173.6-173.6 95.8 0 173.5 77.8 173.5 173.6z"/>
			<path id="path3952" fill-rule="evenodd" class="s13" d="m341 422.8c6.3-2.6 29.9-14.1 29.9-14.1 0 0-6.1-9.2-14.5-13.5 24.4-3.8 57.1-19.6 72.6-41.1-10.6 0-25.8-1.1-25.8-1.1 56.6-30.8 77.1-69.3 77.1-69.3-12.4 0.7-24.1-1.1-24.1-1.1 31.5-35.3 40-83.4 41.8-111-23 20.5-49.5 44.2-75.3 52.3-7.1 73.9-83.8 135.7-124.1 135.7-18.1 0-27.9-15.5-21.5-36.8 4.8-16.2-6.8-32.7-25.1-32.7-3.3 0-21.1 0.8-26.8 21-7 1.2-16.6 4.4-17.5 16.4 3.6-1.9 9.9-3.5 18.2-4.2 10.3 25.1 1.8 40.3-16.2 40.3-40.3 0-121.3-65.8-128.4-139.7-25.8-8.1-52.3-31.8-75.3-52.3 1.8 27.6 10.3 75.7 41.8 111 0 0-11.7 1.8-24.1 1.1 0 0 20.5 38.5 77.1 69.3 0 0-15.2 1.1-25.8 1.1 15.5 21.5 48.2 37.3 72.6 41.1-8.4 4.3-14.5 13.5-14.5 13.5 0 0 23.6 11.5 29.9 14.1"/>
			<path id="path3973" fill-rule="evenodd" class="s0" d="m252 368.4l-0.7 0.8-1.1 1.2c-13.2 15-32.4 21-49.6 23.3-17.2 2.2-32.1 0.7-37.6 0.7h-1.5-1v0.9 1.5c0 32.3 2.7 62.5 15.3 90.7 12.6 28.3 35.3 54.5 74.9 79.1l0.8 0.5 0.5 0.3 0.5-0.3 0.8-0.5c39.6-24.6 62.3-50.8 74.9-79.1 12.6-28.2 15.3-58.4 15.3-90.7v-1.5-0.9h-1-1.5c-5.5 0-20.4 1.5-37.6-0.7-17.2-2.3-36.4-8.3-49.5-23.3l-1.1-1.2z"/>
			<path id="path3906" fill-rule="evenodd" class="s14" d="m164.6 404.7c0.4 29.1 3.5 56 14.8 81.2 7.5 16.8 18.6 32.8 35 48.3v-92.4z"/>
			<path id="path3908" fill-rule="evenodd" class="s5" d="m219.2 441.5v97.1c9.3 8.2 20.1 16.2 32.8 24.1 12.6-7.9 23.5-15.9 32.8-24.1v-97.1z"/>
			<path id="path3917" fill-rule="evenodd" class="s15" d="m339.4 404.7l-49.8 37.1v92.4c16.4-15.5 27.5-31.5 35-48.3 11.3-25.2 14.4-52.1 14.8-81.2z"/>
			<path id="path3962" fill-rule="evenodd" class="s0" d="m226.8 321.3c4.4-0.9 5.9 4.9 16.1 4.9 10.2 0 16.6-3.8 20.4-4.8-7 5.8-17.6 12.2-35.5 4m17.8-21.7c5.7 0 11 4.6 11 4.6h-21.8c0 0 4.6-4.6 10.8-4.6z"/>
			<path id="path5183" fill-rule="evenodd" class="s16" d="m252.2 24.1c-54.6 0-103.3 25.3-135.1 64.8l35.4 27.1c0 0 36.1-48 99.5-48 63.3 0 99.5 48 99.5 48l35.8-27.3c-31.9-39.4-80.5-64.6-135.1-64.6z"/>
			<path id="path5171" fill-rule="evenodd" class="s17" d="m78.6 195.8c0-17.1 17.6-39.4 41.4-29.8-2-32.8 27.3-55.3 57.6-31.8 7.3-10.4 15.9-7.8 23.2 0-4.5-26.5 10.4-36.9 27-24 14.4-20.5 50.1-45 71.5 13.9 21.4-2.1 28.6 6.5 33.2 24.7 16.1-11.1 29 1.4 33.6 10.3 21.8-17.1 49.6-12.5 58.6 16.1"/>
			<path id="path5193" class="s0" d="m134.1 95.3c0.8-0.6 2.5 3 5.6 3 1.7 0 6.9-2.4 10.8-6.3 3.6-3.6 6-8.5 6-11 0-2.6-1.4-6.3-1.4-6.3 0 0 6.6 1.1 6.6-0.4 0-1.5-3.5-3.5-3.5-6 0-2.6 7.4 2.6 7.4 6.4 0 3.8-3.6 3.8-5.2 5.2-1.5 1.4 0 8.7-7.8 16.3-7.8 7.6-12.9 6.9-15.9 3.8-3-3.2-4.4-3.2-2.6-4.7zm14.7-17.8c0 1.7-1.3 3-3 3-1.7 0-3-1.3-3-3 0-1.7 1.3-3 3-3 1.7 0 3 1.3 3 3zm16.4 11.1c0 1.7-1.3 3-3 3-1.7 0-3-1.3-3-3 0-1.7 1.3-3 3-3 1.7 0 3 1.3 3 3zm4.5-3.7c0 1.7-1.4 3.1-3.1 3.1-1.6 0-3-1.4-3-3.1 0-1.6 1.4-3 3-3 1.7 0 3.1 1.4 3.1 3zm-25.3-3.7c0 1.6-1.4 3-3 3-1.7 0-3.1-1.4-3.1-3 0-1.7 1.4-3.1 3.1-3.1 1.6 0 3 1.4 3 3.1zm26 10.1c2.8-4.2 9.6-11.4 9.6-19.6-3.7 2.1-10.7 6.2-10.7-4.6 0-10.7 10.5-1.5 13.9-1.5 3.9 0 46.9-17.2 45.4-19.9-1.5-2.8-27 12.8-38.2 12.8-11.3 0-3.6-9.9 6.5-20 2.7-2.7 3.3 0.7-0.1 4.1-3.4 3.4-9.3 10.3-7.2 11.7 2.2 1.3 29.2-13.4 37.9-13.4 8.7 0 7.7 2.7 7.7 4.4 0 1.6-2.4 4.3-2.4 6.6 0 2.2 1.6 4.9 4.9 4.9 3.3 0 5.6-2.2 5.6-6.8 0-4.7-4.6-15.9-4.7-18.2-0.1-2.3 5.7-2.2 5.2 1-0.5 3.1 1.5 15.6 1.5 19.3 0 3.7-1.7 10.3-7.7 8.7-6-1.6-7.2-7.2-6.7-9.8-7.6 4.3-32.7 17.8-48.1 17.8 0 9.3 2.4 13.5-12.4 22.5zm83.1-61.7c-2.4 2.3-0.8 21.6-0.5 25.3 3.2-5.8 1.5-21.1 0.5-25.3zm25.6 7.9c0 11.1-3.8 13.5 8.7 21.4 12.5 8 18.4 9.9 26.3 9.9 8 0 13.3-17.6 14.4-19.3 1.1-1.8 3.7 2 1.3 5.1-2.4 3.2-2.6 2.4-5.1 8.1-2.5 5.7-2.6 9-11.3 9-8.8 0-20.1-2.5-28.5-8.9-8.3-6.3-8.7-10.7-8.7-13.5-2.5 2.7-5.9 3.3-9.1-0.3-3.1-3.7-2.2-5.7 3.6-5.7 5.8 0 6-0.8 7-3.3 1.1-2.5 1.2-3.8 1.4-2.5zm-16.1-3.4c0.1-1.9 3.6-2.6 5.1-2.6 1.6 0 0.8 1.9 2.3 1.9 1.5 0 2.8-1.2 3.9-1.2 1.2 0 2.2 0.7 2.2 2.4 0 1.6-1.8 3.2-3.6 3-1.7-0.3-1.7-2-3.5-2-1.8 0-1.6 1.1-3.5 1.1-1.9 0-3.1-0.6-2.9-2.6zm42.8 16.6c5.5 0 8.4 0.1 9.6-0.1 1.2-0.3-2.4 2.5-9.4 2.4-6.9-0.1-10.3-3.1-8.6-3.7 1.7-0.7 2.3 1.4 8.4 1.4zm42.4 24.3c0 6.7-2.4 12.2-15 12.2-12.6 0-16.3-10.2-14.3-9.3 2 0.9 5.6 6.8 15.8 6.8 6.3 0 9.3-1 8.2-2.7-1.1-1.6-4.9-0.7-4.9-6.5 0-5.8 3.1-5.8 5.9-5.8 2.8 0 4.2 2.1 4.3 5.3zm12.9 10.9c2.9 0 3.3 4.5 3.3 7.9 0 3.4-1.4 10.3-7.4 10.3-5.9 0-12.1-5.9-12.1-8.7 0-2.8 1.7-3.3 2.7-3.3 1 0 3.9 7.9 9.4 7.9 5.6 0 3.6-2.9 3.6-6 0-3-2-2.4-2-4.4 0-2 0-3.8 2.5-3.7zm9.8-4.7c0 0.7-15.4-0.3-16.6-2.2-1.3-1.9 5.5 0.8 9.9 0.8 4.5 0 8.1-0.2 6.7 1.4z"/>
		</g>
	</g>
</svg>